<?xml version="1.0" encoding="utf-8"?>
<!-- Generator: Adobe Illustrator 14.0.0, SVG Export Plug-In . SVG Version: 6.00 Build 43363)  -->
<!DOCTYPE svg PUBLIC "-//W3C//DTD SVG 1.1//EN" "http://www.w3.org/Graphics/SVG/1.1/DTD/svg11.dtd">
<svg version="1.1" xmlns="http://www.w3.org/2000/svg" xmlns:xlink="http://www.w3.org/1999/xlink" x="0px" y="0px" width="612px"
	 height="792px" viewBox="0 0 612 792" enable-background="new 0 0 612 792" xml:space="preserve">
<g id="Layer_2">
	<rect x="-34.5" y="-31.5" fill="#020202" width="809" height="1023"/>
</g>
<g id="Layer_1">
	<g>
		<path fill="#FFFFFF" d="M56.66,384.877v-87.234H25.472v-4.068h65.991v4.068H60.728v87.234H56.66z"/>
		<path fill="#FFFFFF" d="M182.314,384.877V340.13h-61.923v44.747h-4.52v-91.302h4.52v42.035h62.375v-42.035h4.52v91.302H182.314
			L182.314,384.877z"/>
		<path fill="#FFFFFF" d="M217.569,384.877v-91.302h56.047v4.068h-51.527v37.967h50.624v4.068h-50.624v40.68h51.527v4.068h-56.047
			V384.877z"/>
		<path fill="#FFFFFF" d="M354.976,384.877l-27.571-39.323h-22.148v39.323h-4.52v-91.302h31.64c14.916,0,27.12,9.04,27.12,25.764
			c0,16.724-12.204,25.763-27.12,25.763l28.023,39.324h-5.424V384.877z M354.523,319.338c0-12.656-8.588-21.696-22.147-21.696
			h-27.12v43.844h27.12C345.483,341.034,354.523,331.994,354.523,319.338z"/>
		<path fill="#FFFFFF" d="M387.067,384.877v-91.302h55.595v4.068h-51.527v37.967h50.624v4.068h-50.624v40.68h51.527v4.068h-55.595
			V384.877z"/>
		<path fill="#3A3A3A" d="M498.71,384.877l-37.968-91.302h4.972l35.708,86.331l35.707-86.331h4.973l-37.968,91.302H498.71z"/>
		<path fill="#3A3A3A" d="M618.036,384.877l-27.571-39.323h-21.696v39.323h-4.52v-91.302h31.64c14.916,0,27.119,9.04,27.119,25.764
			c0,16.724-12.203,25.763-27.119,25.763l28.023,39.324h-5.876V384.877z M617.584,319.338c0-12.656-8.588-21.696-22.147-21.696
			h-27.12v43.844h27.12C608.544,341.034,617.584,331.994,617.584,319.338z"/>
	</g>
	<path fill="#3A3A3A" d="M467.145,577.446l-37.968-91.303h4.972l35.708,86.331l35.707-86.331h4.973l-37.968,91.303H467.145z"/>
	<path fill="#3A3A3A" d="M586.579,577.5l-27.571-39.323h-21.696V577.5h-4.52v-91.303h31.64c14.916,0,27.119,9.04,27.119,25.764
		c0,16.725-12.203,25.764-27.119,25.764l28.023,39.324h-5.876V577.5z M586.127,511.961c0-12.655-8.588-21.695-22.147-21.695h-27.12
		v43.844h27.12C577.087,533.657,586.127,524.617,586.127,511.961z"/>
	<path fill="#FFFFFF" d="M253.482,577.493l-27.571-39.323h-22.148v39.323h-4.52V486.19h31.64c14.916,0,27.12,9.04,27.12,25.764
		c0,16.725-12.204,25.764-27.12,25.764l28.414,39.777L253.482,577.493z M253.03,511.954c0-12.655-8.588-21.695-22.147-21.695h-27.12
		v43.844h27.12C243.99,533.65,253.03,524.61,253.03,511.954z"/>
	<path fill="#FFFFFF" d="M120.069,577.878v-91.303h56.048v4.068h-51.528v37.967h50.624v4.068h-50.624v40.68h51.528v4.068h-56.048
		V577.878z"/>
	<path fill="#FFFFFF" d="M354.662,578.065v-91.303h55.595v4.068h-51.527v37.967h50.624v4.068h-50.624v40.68h51.527v4.068h-55.595
		V578.065z"/>
</g>
<g id="Layer_3">
	<path fill="#FFFFFF" d="M59.7,577.377l-37.968-91.302h4.972l35.708,86.331l35.707-86.331h4.973l-37.968,91.302H59.7z"/>
	<path display="none" fill="none" stroke="#FF0000" stroke-width="0.2" d="M358.247,482.525h-29.399
		c-13.56,0-22.147,9.04-22.147,21.695c0,12.656,10.087,21.461,23.2,21.688l0,0c14.916,0,28.1,9.035,28.1,25.759
		c0,16.725-12.204,25.764-27.12,25.764"/>
	<path display="none" fill="none" stroke="#FF0000" stroke-width="0.2" d="M330.88,573.815c13.107-0.452,22.147-9.492,22.147-22.148
		c0-12.655-9.604-21.688-23.164-21.688l0,0c-14.916,0-28.136-9.033-28.136-25.758c0-16.724,12.204-25.764,27.12-25.764h29.508"/>
	<path fill="#FFFFFF" stroke="#FFFFFF" stroke-width="0.25" d="M280.728,574.085l23.936,0.003
		c12.121-0.418,21.482-8.778,21.482-20.482c0-11.703-11.148-19.605-22.41-19.9c-13.096-0.343-27.032-8.51-27.032-23.977
		c0-15.465,12.287-23.825,26.081-23.825h23.71l0.011,3.763h-23.721c-12.54,0-21.482,8.359-21.482,20.062
		c0,11.704,10.318,19.693,22.456,20.057c11.364,0.34,26.986,8.355,26.986,23.82c0,15.467-12.287,23.826-26.081,23.826l-23.897,0.006
		L280.728,574.085z"/>
</g>
</svg>
