<?xml version="1.0" encoding="utf-8"?>
<!-- Generator: Adobe Illustrator 14.0.0, SVG Export Plug-In . SVG Version: 6.00 Build 43363)  -->
<!DOCTYPE svg PUBLIC "-//W3C//DTD SVG 1.1//EN" "http://www.w3.org/Graphics/SVG/1.1/DTD/svg11.dtd">
<svg version="1.1" id="Layer_1" xmlns="http://www.w3.org/2000/svg" xmlns:xlink="http://www.w3.org/1999/xlink" x="0px" y="0px"
	 width="357.25px" height="98px" viewBox="0 0 357.25 98" enable-background="new 0 0 357.25 98" xml:space="preserve">
<path fill="#3A3B3B" d="M248.65,73.876l-20.623-49.592h2.701l19.396,46.892l19.394-46.892h2.701l-20.623,49.592H248.65z
	 M313.522,73.905l-14.976-21.359h-11.785v21.359h-2.455V24.312h17.185c8.103,0,14.73,4.91,14.73,13.995
	c0,9.084-6.628,13.993-14.73,13.993l15.222,21.359h-3.191V73.905z M313.277,38.307c0-6.874-4.666-11.784-12.03-11.784h-14.73v23.814
	h14.73C308.366,50.091,313.277,45.181,313.277,38.307z"/>
<path fill="#FFFFFF" d="M132.597,73.901l-14.975-21.359h-12.031v21.359h-2.455V24.309h17.185c8.102,0,14.731,4.911,14.731,13.994
	c0,9.084-6.629,13.994-14.731,13.994l15.433,21.605L132.597,73.901z M132.352,38.303c0-6.874-4.665-11.784-12.03-11.784h-14.73
	v23.814h14.73C127.441,50.087,132.352,45.177,132.352,38.303z M60.132,74.11V24.518h30.443v2.21H62.587V47.35h27.497v2.21H62.587
	v22.096h27.988v2.209H60.132V74.11z M187.554,74.212V24.62h30.197v2.21h-27.988v20.622h27.497v2.21h-27.497v22.095h27.988v2.21
	h-30.197V74.212z M27.342,73.838L6.72,24.246H9.42l19.395,46.892L48.21,24.246h2.701L30.289,73.838H27.342z M147.417,73.871
	l12.98-0.003c7.493,0,14.167-4.541,14.167-12.941c0-8.399-8.486-12.753-14.658-12.938c-6.593-0.197-12.197-4.537-12.197-10.894
	c0-6.356,4.857-10.897,11.668-10.897h12.884l-0.006-2.044h-12.878c-7.493,0-14.167,4.542-14.167,12.941
	c0,8.4,7.57,12.837,14.684,13.023c6.117,0.16,12.172,4.452,12.172,10.809s-5.085,10.898-11.669,11.125l-13.001-0.001L147.417,73.871
	z"/>
</svg>
